<svg version="1.1" id="Layer_1" xmlns="http://www.w3.org/2000/svg" xmlns:xlink="http://www.w3.org/1999/xlink" x="0px" y="0px"
	 width="100%" viewBox="0 0 512 512" enable-background="new 0 0 512 512" xml:space="preserve">
<path fill="#000000" opacity="1.000000" stroke="none" 
	d="
M284.000000,513.000000 
	C190.689316,513.000000 97.878609,512.979370 5.068041,513.085266 
	C1.793887,513.088989 0.894770,512.633301 0.897272,509.069824 
	C1.015175,341.110870 1.016881,173.151840 0.891609,5.192933 
	C0.888805,1.432993 1.852261,0.913695 5.305123,0.915679 
	C173.097473,1.012090 340.889862,1.011560 508.682220,0.918581 
	C512.100769,0.916687 513.113831,1.385259 513.110901,5.180251 
	C512.982544,173.139175 512.985168,341.098206 513.101318,509.057159 
	C513.103760,512.594727 512.246155,513.092773 508.944611,513.087708 
	C434.129852,512.973633 359.314911,513.000000 284.000000,513.000000 
z"/>
<path fill="#8DD5F5" opacity="1.000000" stroke="none" 
	d="
M9.059983,314.000000 
	C9.059985,227.001785 9.036181,140.503555 9.077104,54.005360 
	C9.087051,32.978642 22.913597,15.893644 42.432022,10.395904 
	C45.851536,9.432732 49.555374,9.114343 53.128181,9.112701 
	C188.792023,9.050367 324.455872,9.037646 460.119751,9.083301 
	C481.251740,9.090411 498.225372,23.144091 503.649597,42.548283 
	C504.605988,45.969528 504.887726,49.677505 504.889313,53.253342 
	C504.949341,188.750519 504.940430,324.247742 504.939728,459.744934 
	C504.939606,480.676941 491.349243,497.966583 471.800354,503.513977 
	C468.381195,504.484222 464.688293,504.881622 461.121521,504.883392 
	C325.457672,504.950348 189.793823,504.948944 54.129955,504.930786 
	C33.177143,504.927979 15.976384,491.266296 10.447291,471.682098 
	C9.438206,468.107880 9.122878,464.233337 9.116355,460.496338 
	C9.031396,411.831024 9.059983,363.165466 9.059983,314.000000 
z"/>
<path fill="#040404" opacity="1.000000" stroke="none" 
	d="
M258.452545,192.106171 
	C259.446808,189.339432 257.951385,188.177444 256.158142,187.029739 
	C248.903778,182.386795 241.693115,177.675491 234.472229,172.980347 
	C232.825256,171.909470 230.931747,170.715042 231.168060,168.564606 
	C231.432114,166.161804 233.879654,165.821228 235.733719,165.331406 
	C241.627686,163.774307 247.569031,162.396530 253.978912,160.830521 
	C245.662766,149.015106 237.527054,137.453873 229.386139,125.896301 
	C229.004074,125.353905 228.501221,124.885353 228.183212,124.311172 
	C227.251007,122.628029 225.531799,120.915131 227.147781,118.925034 
	C228.660339,117.062340 230.699402,117.867294 232.575775,118.556740 
	C243.834503,122.693588 255.094543,126.826843 266.742889,131.104034 
	C267.848145,120.477432 268.936737,110.164642 269.981415,99.847404 
	C270.214081,97.549927 269.914215,94.814156 272.764130,94.093246 
	C275.804504,93.324173 276.518829,96.039780 277.513428,98.098991 
	C282.813538,109.072411 288.116425,120.044479 294.012299,132.246170 
	C294.999390,127.159805 298.346466,123.863335 294.481537,119.328125 
	C291.803986,116.186226 292.275269,112.016411 294.941376,108.716469 
	C297.521423,105.523018 300.838501,104.254425 305.097351,105.588890 
	C322.848206,111.150963 340.651703,116.544907 358.417786,122.058823 
	C362.684082,123.382919 365.623474,126.003670 366.021973,130.793610 
	C366.443237,135.857773 363.915955,139.146515 359.393494,140.598648 
	C357.411591,141.235046 356.915314,142.367889 356.462372,143.878632 
	C355.708221,146.394073 355.050385,148.938385 354.245422,151.856750 
	C361.134613,152.094513 367.833435,152.056000 374.551178,151.502762 
	C378.857178,151.148132 383.194366,151.188019 387.513824,150.974930 
	C389.608917,150.871582 391.604401,150.937271 392.512634,153.225494 
	C393.351562,155.339111 391.646759,156.560593 390.563171,157.942062 
	C387.709778,161.579987 384.818359,165.188126 381.535583,169.319748 
	C394.282990,173.294800 406.591827,177.124680 418.895142,180.972244 
	C429.414734,184.261993 439.944641,187.520309 450.438629,190.890091 
	C458.346375,193.429398 461.978729,199.723083 459.878998,206.944687 
	C458.035034,213.286514 450.895721,216.312851 443.144348,213.917252 
	C418.293091,206.236832 393.456482,198.508987 368.611481,190.808411 
	C365.862335,189.956329 358.050293,195.597626 358.373535,198.389084 
	C358.472321,199.242188 359.828247,200.020920 360.710754,200.700928 
	C368.333740,206.574738 376.013458,212.375595 383.592804,218.304901 
	C385.202179,219.563919 387.655579,220.669922 386.904297,223.345291 
	C386.286224,225.546295 384.140381,225.776657 382.138947,226.265244 
	C372.539185,228.608719 363.007599,231.235916 353.389435,233.497009 
	C350.651611,234.140594 349.682404,235.121765 349.862274,238.024277 
	C350.407593,246.823715 350.639648,255.642639 350.985260,264.454285 
	C351.076172,266.772339 351.466309,269.322205 348.752655,270.477386 
	C346.435883,271.463562 345.241974,269.286957 343.348907,268.146301 
	C340.264313,267.841675 338.541229,265.845001 336.294189,264.077179 
	C330.306671,258.669617 324.452972,253.630249 318.371094,248.361389 
	C316.480377,247.145081 315.697968,248.029617 315.059998,249.415558 
	C313.950592,251.825699 313.235992,254.392258 311.936218,257.132538 
	C309.921600,263.703918 307.176300,269.581177 304.604156,275.521973 
	C303.512604,278.043060 301.928833,280.297516 298.746552,280.115082 
	C295.539703,279.931274 294.281799,277.451813 293.508728,274.835114 
	C289.790680,262.250031 286.691345,249.497574 283.358276,236.808304 
	C281.463623,229.595062 281.293060,229.713806 274.076355,228.914062 
	C260.074524,227.362381 258.069916,228.237122 257.514038,213.745590 
	C257.342407,209.270325 256.740662,204.819458 257.319336,199.901291 
	C257.237640,197.081635 256.472809,194.624710 258.452545,192.106171 
z"/>
<path fill="#010101" opacity="1.000000" stroke="none" 
	d="
M135.546356,465.187012 
	C133.201126,462.248138 129.985123,461.446198 127.456856,459.595795 
	C121.040413,454.899750 119.199425,448.210846 119.051262,440.893463 
	C118.842834,430.599701 119.009552,420.298401 119.069794,409.539337 
	C123.538307,405.429474 128.419983,406.897156 133.657364,408.043091 
	C136.087372,410.240356 136.021637,412.781097 136.039520,415.283661 
	C136.099045,423.612396 135.953796,431.942749 136.105637,440.269897 
	C136.226486,446.897888 138.183502,448.874176 144.907242,448.897125 
	C172.892242,448.992523 200.877625,448.962494 228.862793,448.912354 
	C234.287170,448.902618 234.798431,448.292145 234.924774,442.834381 
	C234.978729,440.503174 234.889511,438.168610 234.988495,435.838806 
	C235.340439,427.555573 241.857971,420.378479 250.181076,420.115112 
	C264.662720,419.656738 279.168121,419.667908 293.650482,420.110199 
	C302.006042,420.365387 308.216278,427.140808 308.951111,435.821991 
	C309.147797,438.145477 308.973633,440.487427 309.086487,442.814911 
	C309.203033,445.217896 308.573181,448.175018 312.146759,448.699463 
	C315.482574,449.189056 318.515411,448.491455 320.388397,445.347809 
	C321.704620,443.138641 321.925476,440.639160 321.932007,438.105530 
	C321.951416,430.609497 321.913086,423.113373 321.955292,415.617432 
	C321.968414,413.283051 321.901733,410.927643 323.714294,408.551147 
	C328.330750,406.349243 332.600464,406.249207 337.207214,408.594788 
	C337.519775,419.817261 337.227936,430.656372 337.551575,441.477142 
	C337.839874,451.116364 334.233826,458.127136 325.567291,462.476135 
	C324.687897,462.917419 323.946808,463.634277 322.925415,464.490814 
	C320.854767,467.237640 318.259705,467.115906 315.120605,466.787537 
	C300.724274,467.308655 286.810547,467.209167 272.409424,466.836304 
	C252.972397,467.437317 234.017197,466.996246 215.064651,467.067780 
	C205.756912,467.102905 196.443970,467.362061 186.651520,466.847656 
	C172.227158,467.289093 158.288681,467.181244 143.866333,466.848053 
	C140.803650,466.846497 138.111832,467.566254 135.546356,465.187012 
z"/>
<path fill="#000000" opacity="1.000000" stroke="none" 
	d="
M322.524475,304.765656 
	C325.578369,308.306244 329.917236,309.280273 332.670563,312.575592 
	C335.552551,316.024963 337.494232,319.615967 337.474548,324.181000 
	C337.418671,337.144562 337.406097,350.108246 337.367615,363.541016 
	C333.420135,367.319946 329.065125,366.209686 324.298370,364.931763 
	C322.022675,362.857269 321.966919,360.515747 321.947327,358.166748 
	C321.886261,350.844757 321.927032,343.522644 321.920166,336.200623 
	C321.906525,321.637451 320.341095,320.088959 305.525421,320.083008 
	C286.887390,320.075500 268.249329,320.080658 249.611298,320.081055 
	C216.495483,320.081726 183.379684,320.077148 150.263870,320.085999 
	C148.101715,320.086578 145.929031,319.974792 143.782181,320.284027 
	C138.286285,321.075623 136.237396,323.259796 136.138550,328.863403 
	C135.968338,338.513428 136.124573,348.166595 136.061523,357.818176 
	C136.046402,360.134216 136.257233,362.504089 134.678467,365.024292 
	C129.552597,367.921173 124.671425,367.719299 119.437973,365.317230 
	C119.081627,352.788727 119.082924,340.661316 118.988289,328.534668 
	C118.899933,317.213593 124.681519,309.985992 134.884644,305.343445 
	C137.046432,302.862030 139.576523,302.819672 142.694183,303.222351 
	C150.739914,302.720856 158.312820,302.806702 166.357635,303.186096 
	C169.988892,302.945618 173.149261,302.748444 176.788544,303.201385 
	C190.622437,302.836090 203.978851,302.498810 217.328735,303.394012 
	C218.487900,303.471741 219.636047,303.461426 221.255127,303.186462 
	C226.218704,302.682709 230.725510,303.116669 235.707306,302.869781 
	C239.298965,304.050018 242.409485,302.884613 245.517563,302.906189 
	C256.913422,302.985382 268.310242,302.786896 280.180786,303.081909 
	C283.815430,303.407959 286.979614,302.516144 290.609802,303.201111 
	C298.661499,302.736359 306.242676,302.802246 314.299469,303.186279 
	C317.327332,303.109009 319.963898,302.476471 322.524475,304.765656 
z"/>
<path fill="#565A6E" opacity="1.000000" stroke="none" 
	d="
M143.383270,304.487915 
	C140.719193,304.853119 138.339310,304.930389 135.515305,305.032410 
	C135.022736,301.064514 134.722214,297.054260 134.999863,293.084473 
	C135.255341,289.431396 133.609970,287.339050 130.463501,286.347839 
	C114.197563,281.223358 105.818138,263.911072 106.064987,250.221832 
	C106.592171,220.986664 132.959656,204.896255 157.167648,212.952759 
	C160.878113,214.187607 163.003647,213.210907 165.841461,210.753387 
	C180.197220,198.321518 196.745041,190.575546 215.706345,187.825378 
	C230.220398,185.720245 244.265793,187.221497 258.471802,191.574005 
	C258.834290,194.228668 258.897858,196.680939 258.912720,199.588943 
	C256.586334,201.729889 254.363754,200.350891 252.187820,199.828445 
	C224.518692,193.185074 198.941025,197.141479 176.529999,215.418701 
	C156.328873,231.893600 145.806595,253.395813 144.995697,279.512146 
	C144.804810,285.660645 145.004562,291.819885 144.943909,297.973663 
	C144.922775,300.117035 145.102646,302.332825 143.383270,304.487915 
z"/>
<path fill="#565B6E" opacity="1.000000" stroke="none" 
	d="
M135.109131,465.271667 
	C137.558380,464.931702 139.900284,465.039948 142.681122,465.205994 
	C143.874985,465.935852 144.621735,466.669952 144.810242,467.677429 
	C145.479736,471.255646 147.989273,471.930023 151.101257,471.936951 
	C160.756088,471.958435 170.410934,471.919708 180.065720,471.957794 
	C181.895615,471.964996 183.731918,471.915466 185.971954,472.504822 
	C198.885162,473.327972 211.354004,472.871399 223.815292,472.874420 
	C239.436523,472.878174 255.061356,473.237122 271.139008,472.603455 
	C282.318756,471.246399 293.084961,472.007599 303.823120,472.052094 
	C308.901062,472.073151 312.932404,471.499512 314.633148,465.519409 
	C317.253662,465.038513 319.552704,464.867737 322.280518,464.727661 
	C323.850677,474.530792 322.099884,478.375305 315.547058,481.312286 
	C313.911835,482.045227 312.347229,482.063934 310.711914,482.064331 
	C256.238007,482.077118 201.764069,482.087524 147.290146,482.062408 
	C138.350037,482.058289 134.724136,477.155853 135.109131,465.271667 
z"/>
<path fill="#5B6174" opacity="1.000000" stroke="none" 
	d="
M323.292358,363.665100 
	C327.858948,363.947357 332.117371,363.961975 336.867249,363.993347 
	C338.685455,364.930023 339.832123,365.887115 341.713562,365.966919 
	C353.342987,366.460205 359.870117,377.908691 358.132690,389.207825 
	C356.681854,398.642975 352.148743,405.412262 341.616882,406.113892 
	C339.876556,406.229828 339.176514,407.658783 337.806091,408.786011 
	C333.276276,408.949799 329.008698,408.913513 324.262085,408.935333 
	C318.383270,409.495544 313.995087,405.820190 313.955994,399.881104 
	C313.896240,390.806000 314.149048,381.740662 313.706909,372.655365 
	C313.434448,367.057190 317.559021,363.411682 323.292358,363.665100 
z"/>
<path fill="#595E70" opacity="1.000000" stroke="none" 
	d="
M118.924332,365.260010 
	C123.646843,364.953949 128.171494,364.992096 133.131042,364.962769 
	C138.858353,365.976257 141.556915,369.884796 141.261871,375.698456 
	C140.871964,383.380981 140.684921,391.066833 141.353073,398.753082 
	C141.817551,404.096252 139.427917,407.579681 134.011627,409.132050 
	C129.081696,409.083923 124.557915,409.052551 119.578934,409.049774 
	C118.268532,407.312653 116.749123,406.983795 114.972252,407.080444 
	C106.299858,407.552277 99.259918,401.713654 97.025452,392.045654 
	C94.146706,379.589996 102.325180,366.312347 115.677803,366.912079 
	C116.930443,366.968323 117.941841,366.580292 118.924332,365.260010 
z"/>
<path fill="#575B6E" opacity="1.000000" stroke="none" 
	d="
M322.943542,304.641846 
	C320.519806,305.052948 318.175507,304.994415 315.394135,304.874817 
	C313.603333,303.646118 313.043671,302.114594 313.018707,300.381958 
	C312.822601,286.769043 313.634338,273.104828 310.838226,259.624542 
	C310.646118,258.698334 311.012238,257.648132 310.930603,256.186554 
	C311.982880,252.860687 313.212738,250.041199 314.101654,247.117996 
	C315.190155,243.538406 316.825378,244.401672 318.875885,246.584900 
	C324.427124,254.455048 324.870026,263.536377 326.229675,272.444153 
	C331.360321,270.540985 331.937317,264.645355 336.729614,262.850891 
	C338.967377,264.453156 340.874207,265.948303 342.899414,267.756042 
	C339.733948,275.603882 334.408722,281.206055 326.922791,284.591553 
	C323.901123,285.958099 322.863556,288.001373 323.019775,291.225525 
	C323.228424,295.531036 323.040558,299.855774 322.943542,304.641846 
z"/>
<path fill="#BEAC88" opacity="1.000000" stroke="none" 
	d="
M310.632935,255.982605 
	C313.722687,261.314819 314.586365,267.438141 314.843964,273.500763 
	C315.273926,283.620636 315.017792,293.769684 315.003784,304.360107 
	C307.325073,304.836853 299.693054,304.859863 291.606598,304.814514 
	C289.524536,303.806091 289.417664,302.072205 288.946289,300.527039 
	C288.587189,299.349823 287.962372,298.435242 286.594910,298.381683 
	C285.247131,298.328918 284.500366,299.134094 284.040527,300.289734 
	C283.437408,301.805267 283.023895,303.436066 281.245422,304.604553 
	C266.310699,304.853760 251.637558,304.883972 236.499100,304.878937 
	C235.811508,301.912567 238.420731,301.100464 240.049667,299.629913 
	C246.728943,293.599915 248.301819,283.512085 243.289993,276.613037 
	C239.320938,271.149445 233.965530,267.953400 227.004364,269.100006 
	C219.650894,270.311279 214.638443,274.647461 212.570480,281.894501 
	C210.592941,288.824677 212.857132,294.632294 217.934158,299.489502 
	C219.459457,300.948792 221.700180,301.749939 222.089767,304.507202 
	C207.329025,304.872650 192.656525,304.890167 177.521896,304.854553 
	C175.599731,303.832214 175.075394,302.249176 174.400558,300.761688 
	C173.840866,299.527985 173.143539,298.380066 171.593765,298.371124 
	C169.694519,298.360168 169.220001,299.784241 168.847580,301.284363 
	C168.572189,302.393738 168.327133,303.529999 167.149673,304.557861 
	C159.256683,304.808838 151.637787,304.855652 143.558975,304.839172 
	C143.362137,289.543121 142.116104,274.340759 145.740448,259.165222 
	C153.140610,228.179703 182.979019,200.335312 214.506332,195.959137 
	C229.374634,193.895325 243.971069,194.472687 258.510132,199.951691 
	C259.238068,207.021545 259.695068,213.995407 259.949432,220.976639 
	C260.068054,224.232483 261.431152,225.838699 264.736694,226.018402 
	C269.209686,226.261536 273.670685,226.719818 278.138458,227.064972 
	C281.556213,227.329010 283.538666,228.468216 284.454712,232.439316 
	C287.678131,246.412979 291.457397,260.260193 295.157562,274.120178 
	C295.677612,276.068115 295.965454,278.739197 298.769318,278.910034 
	C301.576324,279.081146 302.100861,276.506958 302.902557,274.598877 
	C305.461151,268.509277 307.885498,262.363281 310.632935,255.982605 
z"/>
<path fill="#FDD588" opacity="1.000000" stroke="none" 
	d="
M296.951721,255.147583 
	C294.288818,245.040939 291.550629,235.374924 289.139557,225.627960 
	C288.516266,223.108154 287.480896,221.886841 284.968140,221.648102 
	C279.686340,221.146286 274.423462,220.392639 269.132843,220.060013 
	C266.829590,219.915192 265.998688,219.329147 265.947998,216.911026 
	C265.759644,207.928513 265.163055,198.952225 265.093201,189.970718 
	C265.066467,186.536926 263.863037,184.438446 261.032074,182.682541 
	C254.871231,178.861206 248.857727,174.802307 242.191910,170.454315 
	C247.919067,168.967880 252.949646,167.742279 257.932526,166.346451 
	C262.910889,164.951904 263.493408,163.254196 260.519104,159.037857 
	C253.378571,148.915482 246.195969,138.822800 238.173431,127.509773 
	C244.398331,129.691971 249.374222,131.383301 254.310577,133.183075 
	C258.484131,134.704712 262.585938,136.424347 266.767303,137.923050 
	C270.854553,139.388046 272.546539,138.228668 272.969818,133.838760 
	C273.733551,125.917831 274.471558,117.994423 275.224091,110.031815 
	C277.151886,109.888367 277.097565,111.699005 277.590851,112.698639 
	C281.750214,121.127335 285.763062,129.628159 289.869507,138.083237 
	C291.004242,140.419693 291.215759,142.566177 290.406891,145.205231 
	C286.839569,156.844162 283.466949,168.546799 280.295563,180.299667 
	C279.657440,182.664459 278.773773,184.096863 276.486847,184.885361 
	C272.390289,186.297836 270.220642,189.611267 270.334045,193.618256 
	C270.464111,198.212296 272.953735,201.584167 277.752991,203.055130 
	C295.552643,208.510834 313.297577,214.144913 331.092438,219.616394 
	C335.051453,220.833710 338.867554,220.138214 341.401581,216.659424 
	C344.080322,212.982040 344.271942,208.770142 341.464355,205.110596 
	C339.887878,203.055771 339.664917,201.423996 340.679199,199.236328 
	C341.228241,198.052078 341.431152,196.709717 341.815735,195.446442 
	C343.004120,191.542786 342.649933,185.530487 345.892365,184.354187 
	C349.130371,183.179489 353.869049,186.141388 358.602020,187.473358 
	C356.207153,190.438049 354.204041,193.018661 352.091034,195.505905 
	C349.856201,198.136551 349.782562,200.196747 352.819092,202.477783 
	C360.631714,208.346619 368.257477,214.464264 376.639404,221.015060 
	C367.024658,223.451859 358.183960,226.025665 349.190155,227.840515 
	C344.206299,228.846207 342.386505,230.993378 343.142548,235.955338 
	C344.299500,243.549011 343.997345,251.222855 344.017792,259.927246 
	C337.873932,254.678741 332.300171,249.938644 326.751923,245.168823 
	C323.850311,242.674286 320.982788,240.139709 318.119141,237.601440 
	C313.996490,233.947174 312.522278,234.290390 310.335144,239.579590 
	C307.189728,247.186279 304.106232,254.818512 300.981293,262.433685 
	C300.676880,263.175537 300.267395,263.874268 299.496979,265.409271 
	C298.530151,261.597412 297.764252,258.577728 296.951721,255.147583 
z"/>
<path fill="#E7D7BE" opacity="1.000000" stroke="none" 
	d="
M349.114380,146.237854 
	C344.313812,163.260284 339.586823,179.885315 334.910278,196.524536 
	C334.085480,199.459259 333.099457,200.454422 329.583344,199.286072 
	C316.180328,194.832428 302.616058,190.859009 289.076080,186.826859 
	C286.392792,186.027786 285.403259,184.938644 286.269531,182.012650 
	C291.544128,164.196289 296.839905,146.382278 301.719818,128.456207 
	C302.727722,124.753784 304.014496,125.063164 306.812225,125.964050 
	C319.501038,130.049957 332.245361,133.963837 344.975220,137.921860 
	C351.119385,139.832245 351.124908,139.814484 349.114380,146.237854 
z"/>
<path fill="#E4D4BC" opacity="1.000000" stroke="none" 
	d="
M453.340271,199.992645 
	C454.471710,207.115631 451.582123,209.865967 445.229553,207.902817 
	C422.256866,200.803452 399.337036,193.532486 376.348083,186.486816 
	C373.748596,185.690125 372.886871,184.914032 373.950409,182.249130 
	C374.975006,179.681641 375.575317,176.944824 376.331146,174.386948 
	C400.097656,181.709076 423.684723,188.949036 447.243622,196.279449 
	C449.385712,196.945953 451.846497,197.348999 453.340271,199.992645 
z"/>
<path fill="#1C3D52" opacity="1.000000" stroke="none" 
	d="
M279.976196,197.079376 
	C277.140656,196.244354 276.332428,194.490509 277.496704,192.381073 
	C278.717804,190.168655 280.977814,190.847610 282.875946,191.432190 
	C297.961365,196.078064 313.030609,200.776459 328.103760,205.462158 
	C329.689972,205.955261 331.249268,206.549637 332.856537,206.956924 
	C335.349976,207.588760 337.573639,208.705185 336.686096,211.648956 
	C335.808746,214.558807 333.386932,213.632736 331.268250,212.974625 
	C316.836304,208.491699 302.397614,204.030579 287.962128,199.559052 
	C285.424988,198.773117 282.892792,197.971176 279.976196,197.079376 
z"/>
<path fill="#1C3D52" opacity="1.000000" stroke="none" 
	d="
M326.576904,125.393967 
	C318.735809,122.957428 311.272919,120.645645 303.789062,118.403854 
	C301.355316,117.674820 299.047241,116.638962 300.063538,113.660912 
	C301.044342,110.786865 303.697693,111.820480 305.646332,112.413841 
	C322.660736,117.594727 339.648346,122.864197 356.625397,128.166641 
	C358.618500,128.789139 360.514862,129.967972 359.557678,132.485992 
	C358.677521,134.801392 356.803497,134.805206 354.580688,134.095337 
	C345.396057,131.162155 336.162537,128.382187 326.576904,125.393967 
z"/>
<path fill="#C8D6E8" opacity="1.000000" stroke="none" 
	d="
M368.839783,177.745056 
	C368.065887,182.405655 366.141357,184.088013 361.763672,182.034363 
	C359.259308,180.859543 356.470764,180.291840 353.812286,179.444061 
	C346.978180,177.264709 347.233063,177.321594 348.886292,170.119644 
	C349.689697,166.619553 350.965576,166.107513 354.049347,167.297287 
	C357.709259,168.709305 361.441925,170.113495 365.272003,170.854919 
	C369.453247,171.664337 370.756989,173.465851 368.839783,177.745056 
z"/>
<path fill="#CBB79A" opacity="1.000000" stroke="none" 
	d="
M336.930908,262.648438 
	C333.813568,267.698090 331.037476,272.872742 324.971710,276.001068 
	C323.803192,266.111328 322.167450,256.717651 318.986938,247.287659 
	C324.925781,252.039322 330.863525,257.189087 336.930908,262.648438 
z"/>
<path fill="#F7D085" opacity="1.000000" stroke="none" 
	d="
M381.063721,157.885483 
	C380.705444,161.459549 377.582367,163.371628 375.728973,166.167175 
	C375.212463,166.946243 374.323761,167.176926 373.523407,166.927597 
	C366.416565,164.713852 359.328125,162.440933 352.311340,159.742142 
	C361.725891,157.446625 371.225220,158.236923 381.063721,157.885483 
z"/>
<path fill="#FEFEFE" opacity="1.000000" stroke="none" 
	d="
M133.623108,409.576416 
	C140.085938,404.291107 140.621994,402.774719 138.249939,394.657623 
	C137.933472,393.574707 137.985428,392.825806 138.485458,391.918030 
	C140.196548,388.811859 140.265930,385.645111 138.587662,382.512665 
	C138.010605,381.435608 137.942078,380.586365 138.342682,379.317291 
	C140.653137,371.997986 140.070328,370.349274 133.811066,365.164612 
	C133.590927,353.074951 133.608078,341.254547 133.643600,329.434235 
	C133.667862,321.358673 136.551208,318.423889 144.740814,318.420227 
	C200.683212,318.395233 256.625610,318.390961 312.567993,318.425842 
	C320.634094,318.430878 323.671051,321.558563 323.684875,329.542328 
	C323.704193,340.697449 323.679749,351.852600 323.637268,363.470245 
	C316.259155,365.950531 313.593201,370.634094 316.178680,377.479401 
	C316.808289,379.146332 316.987000,380.315521 316.233490,382.023712 
	C314.958344,384.914459 314.760406,388.033844 316.576538,390.900848 
	C317.237640,391.944519 317.294708,392.760345 316.869995,394.015289 
	C314.229462,401.818207 315.920044,405.565338 323.495117,408.812988 
	C323.751068,419.483429 323.759735,429.973694 323.674255,440.463226 
	C323.605621,448.883118 315.891632,454.034119 308.128876,451.027924 
	C306.489136,450.392944 306.967285,449.211029 306.950745,448.176758 
	C306.886841,444.181122 306.965576,440.183319 306.914795,436.187286 
	C306.815216,428.349640 301.027710,422.035706 293.308899,421.934082 
	C278.989960,421.745514 264.664398,421.726288 250.346329,421.945923 
	C242.850967,422.060883 237.130936,428.391479 237.046570,435.900940 
	C237.042831,436.233978 237.065582,436.568359 237.043121,436.899902 
	C236.731766,441.495483 239.064102,447.783997 236.106262,450.227631 
	C233.298233,452.547546 227.240753,451.028839 222.611938,451.034637 
	C196.633575,451.067200 170.655167,451.055786 144.676773,451.047028 
	C136.603149,451.044312 133.667923,448.109070 133.650085,440.012634 
	C133.628082,430.020966 133.642227,420.029266 133.623108,409.576416 
z"/>
<path fill="#CBB79A" opacity="1.000000" stroke="none" 
	d="
M272.381561,473.764313 
	C271.458374,474.340973 270.828552,474.679840 270.199188,474.679016 
	C242.356537,474.641724 214.513931,474.574493 186.308487,474.316711 
	C183.770264,471.556946 183.467804,468.841492 185.659637,465.629120 
	C214.364319,465.243378 242.701843,465.184418 271.499390,465.204498 
	C274.505280,467.774139 274.416595,470.497955 272.381561,473.764313 
z"/>
<path fill="#565656" opacity="1.000000" stroke="none" 
	d="
M271.000122,435.191589 
	C276.823822,435.192841 282.151154,435.308624 287.470551,435.152985 
	C290.799683,435.055573 292.168365,436.137848 292.232147,439.707581 
	C292.436646,451.155884 292.568970,451.153870 281.111908,451.153381 
	C272.793182,451.153015 264.472870,451.056702 256.156616,451.199646 
	C253.050049,451.253021 251.630402,450.398743 251.708344,447.008331 
	C252.037918,432.669769 249.864304,435.515930 263.013733,435.199860 
	C265.507904,435.139893 268.004761,435.191345 271.000122,435.191589 
z"/>
<path fill="#B6A583" opacity="1.000000" stroke="none" 
	d="
M272.549500,474.179901 
	C272.051361,471.491974 272.014679,468.823364 271.968719,465.719147 
	C285.980225,465.224518 300.001038,465.165466 314.488220,465.157837 
	C315.555603,473.639435 315.070953,474.191559 306.918365,474.198090 
	C295.615906,474.207184 284.313477,474.199646 272.549500,474.179901 
z"/>
<path fill="#BFAD88" opacity="1.000000" stroke="none" 
	d="
M185.562469,465.222595 
	C186.008453,467.943024 185.990128,470.583679 185.958740,473.673462 
	C174.213257,474.138367 162.480850,474.172394 150.748459,474.163147 
	C143.548080,474.157501 142.937592,473.483673 143.105560,465.677765 
	C157.112747,465.223480 171.105453,465.183167 185.562469,465.222595 
z"/>
<path fill="#575A6E" opacity="1.000000" stroke="none" 
	d="
M222.458160,304.923218 
	C221.097763,304.146576 220.242996,303.362213 219.282501,302.741455 
	C211.653641,297.811127 208.362442,289.540894 210.759186,281.227234 
	C213.217743,272.699097 220.454880,267.097076 229.079712,267.046021 
	C237.435425,266.996582 244.704117,272.427338 247.297516,280.657410 
	C249.875107,288.837250 246.763031,297.420227 239.391403,302.441528 
	C238.429321,303.096832 237.445511,303.720276 236.252777,304.601074 
	C231.660797,304.892883 227.287796,304.942078 222.458160,304.923218 
z"/>
<path fill="#575A6E" opacity="1.000000" stroke="none" 
	d="
M167.336411,304.820160 
	C166.888275,303.943573 166.939636,303.123596 166.906769,302.306976 
	C166.783478,299.243652 167.453339,296.558868 171.013245,296.144196 
	C174.533188,295.734192 175.933365,298.049683 176.430313,301.147888 
	C176.585724,302.116913 176.787445,303.078552 177.013870,304.422516 
	C173.972260,304.827087 170.884750,304.852692 167.336411,304.820160 
z"/>
<path fill="#565A6E" opacity="1.000000" stroke="none" 
	d="
M281.436279,304.886597 
	C281.287598,303.556946 281.736115,302.304993 281.866089,301.020844 
	C282.173248,297.985931 283.574310,295.981201 286.779541,296.119843 
	C290.024597,296.260254 291.215454,298.423218 291.119598,301.471222 
	C291.093994,302.286011 291.143524,303.103149 291.155334,304.332672 
	C288.064331,304.813965 284.976501,304.881805 281.436279,304.886597 
z"/>
<path fill="#CFBA9C" opacity="1.000000" stroke="none" 
	d="
M146.798218,218.984436 
	C148.244965,219.049561 149.243240,219.079666 150.236664,219.165634 
	C154.163925,219.505508 154.557251,220.989456 152.222672,224.122803 
	C141.228699,238.878250 135.050964,255.467270 133.728912,273.848511 
	C133.625427,275.287109 133.893356,277.273590 132.339844,277.824615 
	C130.457123,278.492371 128.931396,276.881989 127.493965,275.808929 
	C115.720406,267.019928 111.402687,253.563232 115.743713,240.048462 
	C119.188431,229.324203 131.392136,217.785141 146.798218,218.984436 
z"/>
<path fill="#BBAA87" opacity="1.000000" stroke="none" 
	d="
M339.397705,400.103760 
	C339.240601,391.060516 339.264282,382.423340 339.077057,373.790710 
	C339.010712,370.730316 340.021637,370.123016 342.901489,370.858215 
	C349.398041,372.516724 354.009796,378.673492 354.028198,386.175323 
	C354.045929,393.398834 349.206787,400.056610 342.898895,401.552124 
	C341.516937,401.879791 340.263580,402.062653 339.397705,400.103760 
z"/>
<path fill="#ECEDEF" opacity="1.000000" stroke="none" 
	d="
M331.667725,370.212433 
	C333.402863,372.481689 334.418579,375.612274 331.606964,376.346252 
	C328.594269,377.132751 324.421265,378.297485 321.897705,375.021393 
	C320.185974,372.799225 321.706390,370.768127 324.268402,370.330627 
	C326.531555,369.944153 328.902283,370.188049 331.667725,370.212433 
z"/>
<path fill="#FAFAFB" opacity="1.000000" stroke="none" 
	d="
M333.194855,399.903381 
	C330.068878,403.683044 326.324280,401.989929 322.902405,401.371918 
	C321.409424,401.102264 320.955872,398.948273 321.942596,397.609406 
	C324.383789,394.296875 328.023102,396.342865 331.110992,395.977722 
	C333.775055,395.662689 333.060913,397.935303 333.194855,399.903381 
z"/>
<path fill="#FAFAFB" opacity="1.000000" stroke="none" 
	d="
M322.561340,388.570892 
	C320.602020,384.501190 322.285736,382.603027 325.920258,383.170990 
	C328.318237,383.545746 332.162262,380.443237 333.099640,385.390930 
	C333.565887,387.851868 332.969055,389.621002 329.811096,389.252197 
	C327.530609,388.985809 325.219360,388.982635 322.561340,388.570892 
z"/>
<path fill="#BBAA87" opacity="1.000000" stroke="none" 
	d="
M111.304214,372.140381 
	C114.284317,371.180786 116.043282,371.054138 115.931770,374.866882 
	C115.693130,383.026093 115.748627,391.198212 115.878792,399.361908 
	C115.935867,402.941345 114.542336,403.120605 111.616226,402.111786 
	C105.726425,400.081238 101.442093,394.978302 100.986153,388.931152 
	C100.389618,381.019257 103.434494,375.904968 111.304214,372.140381 
z"/>
<path fill="#F2F2F4" opacity="1.000000" stroke="none" 
	d="
M128.599106,377.862183 
	C126.840988,377.854431 125.514267,377.801941 124.190880,377.847046 
	C121.595154,377.935577 121.854607,376.094238 121.865265,374.447418 
	C121.875763,372.826294 121.533432,370.948730 124.173958,371.064941 
	C125.661903,371.130371 127.156410,371.110107 128.645874,371.062866 
	C130.972183,370.989197 133.279251,371.392212 133.575363,374.062744 
	C133.916687,377.141174 131.640549,377.887573 128.599106,377.862183 
z"/>
<path fill="#FCFCFC" opacity="1.000000" stroke="none" 
	d="
M133.116318,385.531921 
	C133.773071,392.740479 128.499146,389.409729 125.610291,390.115112 
	C121.830109,391.038147 121.605240,388.538483 121.889374,385.759674 
	C121.981102,384.862610 122.213295,383.993469 123.267609,384.085602 
	C126.490944,384.367218 129.921814,382.891174 133.116318,385.531921 
z"/>
<path fill="#FCFCFC" opacity="1.000000" stroke="none" 
	d="
M125.929802,403.029480 
	C122.790154,403.418640 121.717415,402.488007 121.756683,399.559784 
	C121.797363,396.526123 123.454903,396.497864 125.578979,396.589081 
	C126.730202,396.638550 127.884956,396.607056 129.038116,396.609863 
	C131.328354,396.615417 133.636261,396.924866 133.489594,399.873810 
	C133.353729,402.605530 131.245804,403.192108 128.852982,403.037872 
	C128.032715,402.985046 127.206154,403.029755 125.929802,403.029480 
z"/>
<path fill="#575B6E" opacity="1.000000" stroke="none" 
	d="
M187.343948,266.910278 
	C183.359894,265.510132 180.827164,263.168762 181.294174,259.092316 
	C181.628937,256.170197 183.265640,253.802704 186.448730,253.039551 
	C190.631226,252.036804 194.804047,254.625778 195.545456,258.672729 
	C196.282883,262.698059 192.988937,266.191833 187.343948,266.910278 
z"/>
<path fill="#575B6E" opacity="1.000000" stroke="none" 
	d="
M267.529236,253.102417 
	C274.645264,252.870605 278.590637,256.941772 276.539703,262.015717 
	C275.336914,264.991394 273.097473,266.955933 269.754272,266.938538 
	C266.367584,266.920929 264.096924,264.809631 263.211121,261.796448 
	C262.110626,258.052948 263.397797,254.955933 267.529236,253.102417 
z"/>
<path fill="#FB917D" opacity="1.000000" stroke="none" 
	d="
M225.036530,277.587646 
	C234.342056,276.027435 240.228363,280.954956 238.375473,288.310547 
	C237.235809,292.834839 234.206741,295.560547 229.616379,295.823669 
	C225.262802,296.073212 221.945618,293.904114 220.305099,289.749115 
	C218.547745,285.298157 220.087448,281.326538 225.036530,277.587646 
z"/>
</svg>